<svg width="14" height="14" viewBox="0 0 14 14" fill="none" xmlns="http://www.w3.org/2000/svg">
<path fill-rule="evenodd" clip-rule="evenodd" d="M7.00039 0.399902C7.33176 0.399902 7.60039 0.668532 7.60039 0.999902V6.3999H13.0004C13.3318 6.3999 13.6004 6.66853 13.6004 6.9999C13.6004 7.33127 13.3318 7.5999 13.0004 7.5999H7.60039V12.9999C7.60039 13.3313 7.33176 13.5999 7.00039 13.5999C6.66902 13.5999 6.40039 13.3313 6.40039 12.9999V7.5999H1.00039C0.66902 7.5999 0.400391 7.33127 0.400391 6.9999C0.400391 6.66853 0.66902 6.3999 1.00039 6.3999H6.40039V0.999902C6.40039 0.668532 6.66902 0.399902 7.00039 0.399902Z" fill="#444444"/>
</svg>
