<svg width="137" height="29" viewBox="0 0 137 29" fill="none" xmlns="http://www.w3.org/2000/svg">
<path d="M132.396 5.12109V5.63086H131.535V8H130.93V5.63086H130.064V5.12109H132.396ZM133.601 8H133.04V5.12109H133.915L134.439 7.38477L134.958 5.12109H135.823V8H135.263V6.05273C135.263 5.99674 135.264 5.91862 135.265 5.81836C135.266 5.7168 135.267 5.63867 135.267 5.58398L134.722 8H134.138L133.597 5.58398C133.597 5.63867 133.598 5.7168 133.599 5.81836C133.6 5.91862 133.601 5.99674 133.601 6.05273V8Z" fill="white"/>
<path d="M9.75 23.375C4.35 23.375 1 19.4 1 14.05C1 8.7 4.35 4.725 9.75 4.725C15.15 4.725 18.5 8.7 18.5 14.05C18.5 19.4 15.15 23.375 9.75 23.375ZM9.75 21.4C13.95 21.4 16.2 18.25 16.2 14.05C16.2 9.85 13.95 6.675 9.75 6.675C5.55 6.675 3.3 9.85 3.3 14.05C3.3 18.25 5.55 21.4 9.75 21.4ZM23.2068 10.075V11.775H23.2568C24.1818 10.55 25.4818 9.775 27.3568 9.775C30.0568 9.775 31.7068 11.25 31.7068 13.925V23H29.6818V14.1C29.6818 12.425 28.5818 11.475 26.7568 11.475C24.7068 11.475 23.2068 12.925 23.2068 15.05V23H21.1818V10.075H23.2068ZM40.2148 23.35C36.2648 23.35 33.9648 20.3 33.9648 16.55C33.9648 12.8 36.4148 9.75 40.0898 9.75C43.9648 9.75 46.0398 12.75 46.0398 17.025H36.0398C36.1898 19.65 37.6148 21.65 40.2148 21.65C42.0898 21.65 43.3398 20.75 43.7898 19H45.7648C45.1648 21.775 43.1398 23.35 40.2148 23.35ZM40.0898 11.35C37.6898 11.35 36.3898 13.15 36.0898 15.5H43.8648C43.7398 12.925 42.4148 11.35 40.0898 11.35ZM48.6199 23V5.125H50.8699V20.925H60.2449V23H48.6199ZM62.4627 23V10.075H64.4877V23H62.4627ZM62.4627 7.625V5.125H64.4877V7.625H62.4627ZM73.0729 23.35C69.2229 23.35 66.8229 20.3 66.8229 16.55C66.8229 12.8 69.2229 9.75 73.0729 9.75C76.1229 9.75 78.1479 11.5 78.5979 14.25H76.5479C76.2479 12.5 75.0229 11.425 73.0729 11.425C70.3229 11.425 68.8979 13.7 68.8979 16.55C68.8979 19.4 70.3229 21.65 73.0729 21.65C75.1729 21.65 76.4229 20.45 76.5979 18.45H78.5979C78.3229 21.55 76.2979 23.35 73.0729 23.35ZM86.3367 23.35C82.3867 23.35 80.0867 20.3 80.0867 16.55C80.0867 12.8 82.5367 9.75 86.2117 9.75C90.0867 9.75 92.1617 12.75 92.1617 17.025H82.1617C82.3117 19.65 83.7367 21.65 86.3367 21.65C88.2117 21.65 89.4617 20.75 89.9117 19H91.8867C91.2867 21.775 89.2617 23.35 86.3367 23.35ZM86.2117 11.35C83.8117 11.35 82.5117 13.15 82.2117 15.5H89.9867C89.8617 12.925 88.5367 11.35 86.2117 11.35ZM96.4668 10.075V11.775H96.5168C97.4418 10.55 98.7418 9.775 100.617 9.775C103.317 9.775 104.967 11.25 104.967 13.925V23H102.942V14.1C102.942 12.425 101.842 11.475 100.017 11.475C97.9668 11.475 96.4668 12.925 96.4668 15.05V23H94.4418V10.075H96.4668ZM113.475 23.35C109.625 23.35 107.225 20.3 107.225 16.55C107.225 12.8 109.625 9.75 113.475 9.75C116.525 9.75 118.55 11.5 119 14.25H116.95C116.65 12.5 115.425 11.425 113.475 11.425C110.725 11.425 109.3 13.7 109.3 16.55C109.3 19.4 110.725 21.65 113.475 21.65C115.575 21.65 116.825 20.45 117 18.45H119C118.725 21.55 116.7 23.35 113.475 23.35ZM126.739 23.35C122.789 23.35 120.489 20.3 120.489 16.55C120.489 12.8 122.939 9.75 126.614 9.75C130.489 9.75 132.564 12.75 132.564 17.025H122.564C122.714 19.65 124.139 21.65 126.739 21.65C128.614 21.65 129.864 20.75 130.314 19H132.289C131.689 21.775 129.664 23.35 126.739 23.35ZM126.614 11.35C124.214 11.35 122.914 13.15 122.614 15.5H130.389C130.264 12.925 128.939 11.35 126.614 11.35Z" fill="white"/>
</svg>
