<svg width="16" height="16" viewBox="0 0 16 16" fill="none" xmlns="http://www.w3.org/2000/svg">
<path d="M3.8 10.1L5.2 11.5L8.35 8.35M5.2 5.2V3.24C5.2 2.45593 5.2 2.06389 5.35259 1.76441C5.48681 1.50099 5.70099 1.28681 5.96441 1.15259C6.26389 1 6.65593 1 7.44 1H12.76C13.5441 1 13.9361 1 14.2356 1.15259C14.499 1.28681 14.7132 1.50099 14.8474 1.76441C15 2.06389 15 2.45593 15 3.24V8.56C15 9.34407 15 9.73611 14.8474 10.0356C14.7132 10.299 14.499 10.5132 14.2356 10.6474C13.9361 10.8 13.5441 10.8 12.76 10.8H10.8M3.24 15H8.56C9.34407 15 9.73611 15 10.0356 14.8474C10.299 14.7132 10.5132 14.499 10.6474 14.2356C10.8 13.9361 10.8 13.5441 10.8 12.76V7.44C10.8 6.65593 10.8 6.26389 10.6474 5.96441C10.5132 5.70099 10.299 5.48681 10.0356 5.35259C9.73611 5.2 9.34407 5.2 8.56 5.2H3.24C2.45593 5.2 2.06389 5.2 1.76441 5.35259C1.50099 5.48681 1.28681 5.70099 1.15259 5.96441C1 6.26389 1 6.65593 1 7.44V12.76C1 13.5441 1 13.9361 1.15259 14.2356C1.28681 14.499 1.50099 14.7132 1.76441 14.8474C2.06389 15 2.45593 15 3.24 15Z" stroke="#444444" stroke-linecap="round" stroke-linejoin="round"/>
</svg>
